<svg width="182" height="29" viewBox="0 0 182 29" fill="none" xmlns="http://www.w3.org/2000/svg">
<circle cx="14" cy="14" r="14" fill="#373634"/>
<path d="M7.32888 10.9855C8.97907 12.4507 11.5015 12.3141 12.98 10.6712C14.4516 9.01616 14.3156 6.48959 12.6707 5.01905C11.0213 3.54775 8.49815 3.6844 7.02043 5.33335C5.54802 6.97623 5.68477 9.50887 7.32888 10.9855Z" fill="#FFFFFE"/>
<circle cx="168" cy="15" r="14" fill="#373634"/>
<path d="M161.329 11.9855C162.979 13.4507 165.501 13.3141 166.98 11.6712C168.452 10.0162 168.316 7.48959 166.671 6.01905C165.021 4.54775 162.498 4.6844 161.02 6.33335C159.548 7.97623 159.685 10.5089 161.329 11.9855Z" fill="#FFFFFE"/>
</svg>
