<svg width="132" height="180" viewBox="0 0 132 180" fill="none" xmlns="http://www.w3.org/2000/svg">
<path d="M17.0949 2.50227C38.4079 8.36927 77.6729 32.1973 93.3449 45.0023C120.259 66.9863 143.634 102.705 116.892 131.463C97.8289 151.979 35.7199 195.018 25.0639 168.4C18.2199 151.252 36.6649 138.721 47.9309 135.26C70.1419 128.432 106.806 105.088 78.7669 83.1043C50.7429 61.1273 2.51691 45.0023 2.51691 45.0023L17.0949 2.50227Z" fill="url(#paint0_radial_1_65)"/>
<path d="M80.3059 81.1433C87.8609 87.0253 91.3999 93.5413 91.3839 100.025C90.8059 118.572 65.5329 132.197 48.6499 137.635C39.5949 140.307 25.7669 149.721 26.0559 161.01C26.0719 163.018 26.4539 165.174 27.3919 167.479C29.4229 172.408 32.962 174.197 38.923 174.33C59.626 174.635 100.837 145.299 115.056 129.76C122.978 121.158 126.158 112.213 126.181 103.119C126.267 83.0803 109.993 61.7753 91.7669 46.9393C77.0249 34.8383 39.7589 12.1823 18.6809 5.57227L5.68095 43.4633C15.7509 47.0183 55.4389 61.6893 80.3059 81.1433ZM22.743 169.314C21.611 166.494 21.056 163.705 21.072 161.01C21.353 145.666 37.056 136.057 47.173 132.861C63.322 128.158 86.9469 113.408 86.3919 100.025C86.3679 95.4393 84.025 90.4473 77.212 85.0643C49.759 63.5103 1.78995 47.3693 1.71195 47.3693C1.07195 47.1583 0.563952 46.7053 0.258952 46.1113C-0.0300482 45.5103 -0.0850482 44.8073 0.133952 44.1893L14.712 1.68927C15.142 0.432272 16.462 -0.255726 17.743 0.0882737C39.79 6.21327 78.853 29.9943 94.908 43.0573C113.689 58.4713 131.064 80.3933 131.165 103.119C131.165 113.432 127.415 123.783 118.712 133.158C103.322 149.439 63.189 179.025 38.923 179.33C38.775 179.33 38.642 179.33 38.501 179.33C31.579 179.33 25.361 176.182 22.743 169.314Z" fill="#373634"/>
<path d="M119.462 74.1193C117.322 70.5963 114.884 67.1583 112.212 63.8383C105.868 69.1503 96.001 73.0723 90.306 77.8773C101.212 81.0643 109.783 78.6273 119.462 74.1193ZM96.603 149.174C100.064 146.564 103.322 143.955 106.275 141.439C97.525 140.518 89.103 138.541 82.587 136.541C87.079 141.541 91.65 145.619 96.603 149.174ZM128.22 96.9083C118.462 99.5493 107.915 100.963 102.876 105.229C110.204 109.916 118.993 110.83 127.697 111.463C128.743 106.635 128.931 101.76 128.22 96.9083ZM93.345 45.0023C89.392 41.7603 83.884 37.8073 77.572 33.6193C76.618 36.9793 75.283 40.3223 73.072 43.6433C69.587 48.9003 62.556 52.5493 61.837 58.4793C72.478 62.2133 83.572 53.0643 93.634 45.2443C93.54 45.1663 93.447 45.0883 93.345 45.0023Z" fill="#373634"/>
<defs>
<radialGradient id="paint0_radial_1_65" cx="0" cy="0" r="1" gradientUnits="userSpaceOnUse" gradientTransform="translate(-33.2261 -1.88572) scale(274.646)">
<stop stop-color="#C2C4C1"/>
<stop offset="0.006" stop-color="#C2C4C1"/>
<stop offset="0.298" stop-color="#BABCBA"/>
<stop offset="0.657" stop-color="#A5A7A6"/>
<stop offset="1" stop-color="#989B9A"/>
</radialGradient>
</defs>
</svg>
