<svg width="454" height="364" viewBox="0 0 454 364" fill="none" xmlns="http://www.w3.org/2000/svg">
<path d="M205.792 174.477C239.979 177.102 295.003 126.469 338.394 126.469C457.253 126.469 466.987 236.915 435.55 278.485C400.089 325.352 281.237 345.93 244.651 348.211C208.058 350.508 114.354 366.5 96.073 311.633C77.776 256.782 116.636 167.618 205.792 174.477Z" fill="url(#paint0_radial_1_3)"/>
<path d="M94.12 282.891C94.12 292.766 95.573 302.25 98.425 310.844C108.706 342.305 146.128 349.641 183.058 349.618C206.862 349.618 229.956 346.633 244.495 345.711C280.581 343.665 399.597 322.469 433.55 276.985C442.667 264.868 448.394 246.235 448.362 226.297C448.159 180.829 419.729 129.133 338.394 128.969C297.558 128.665 244.495 176.672 208.394 177.055C207.456 177.079 206.542 177.032 205.604 176.969L205.792 174.477L205.581 176.969C202.354 176.688 199.222 176.586 196.175 176.586C129.3 176.688 94.206 233.782 94.12 282.891ZM93.683 312.422C90.636 303.274 89.128 293.25 89.128 282.891C89.229 231.711 126.003 171.618 196.175 171.602C199.362 171.571 202.62 171.704 205.995 171.977C206.776 172.04 207.573 172.071 208.394 172.071C240.94 172.469 294.573 124.258 338.394 123.954C380.214 123.938 409.128 137.54 427.425 157.243C445.729 176.946 453.354 202.54 453.386 226.297C453.354 247.172 447.511 266.704 437.534 279.993C400.581 328.227 281.878 348.188 244.8 350.704C230.573 351.602 207.253 354.625 183.058 354.625C145.917 354.602 105.573 347.547 93.683 312.422Z" fill="#373634"/>
<path d="M276.565 147.321C299.206 169.727 314.214 229.266 316.667 257.922C319.386 231.438 313.339 167.274 298.651 136.704C291.292 139.891 283.901 143.524 276.565 147.321ZM243.784 164.11C260.659 186.43 279.378 254.391 277.808 276.211C285.237 249.985 271.558 183.946 260.003 155.993C254.464 158.875 249.058 161.625 243.784 164.11ZM389.229 134.891C380.308 131.469 370.229 128.946 358.753 127.618C377.183 148.5 391.089 175.141 402.503 198.805C402.042 178.633 396.464 156.602 389.229 134.891ZM338.394 126.469C327.667 126.469 316.276 129.563 304.644 134.165C338.128 167.047 357.542 211.063 368.089 255.625C370.394 217.922 359.284 166.188 341.886 126.571C340.714 126.547 339.597 126.469 338.394 126.469Z" fill="#373634"/>
<path d="M401.245 268.211C383.136 270.61 364.097 279.571 346.354 284.461C327.854 289.555 310.003 300.649 294.878 312.469C283.308 321.524 267.901 333.579 257.604 347C303.675 341.649 403.581 320.774 435.55 278.485C436.862 276.75 438.089 274.836 439.253 272.868C427.292 270.571 411.261 266.875 401.245 268.211Z" fill="#FFFFFE"/>
<path d="M94.12 282.891C94.12 292.766 95.573 302.25 98.425 310.844C108.706 342.305 146.128 349.641 183.058 349.618C206.862 349.618 229.956 346.633 244.495 345.711C280.581 343.665 399.597 322.469 433.55 276.985C442.667 264.868 448.394 246.235 448.362 226.297C448.159 180.829 419.729 129.133 338.394 128.969C297.558 128.665 244.495 176.672 208.394 177.055C207.456 177.079 206.542 177.032 205.604 176.969L205.792 174.477L205.581 176.969C202.354 176.688 199.222 176.586 196.175 176.586C129.3 176.688 94.206 233.782 94.12 282.891ZM93.683 312.422C90.636 303.274 89.128 293.25 89.128 282.891C89.229 231.711 126.003 171.618 196.175 171.602C199.362 171.571 202.62 171.704 205.995 171.977C206.776 172.04 207.573 172.071 208.394 172.071C240.94 172.469 294.573 124.258 338.394 123.954C380.214 123.938 409.128 137.54 427.425 157.243C445.729 176.946 453.354 202.54 453.386 226.297C453.354 247.172 447.511 266.704 437.534 279.993C400.581 328.227 281.878 348.188 244.8 350.704C230.573 351.602 207.253 354.625 183.058 354.625C145.917 354.602 105.573 347.547 93.683 312.422Z" fill="#373634"/>
<path d="M264.401 314.758C239.292 344.954 189.253 374.172 172.659 355.547C154.331 335 188.003 290.805 224.206 272.993L264.401 314.758Z" fill="url(#paint1_radial_1_3)"/>
<path d="M170.784 357.211C166.784 352.743 164.956 347.149 164.979 341.274C165.276 316.946 193.261 285.586 223.112 270.75C224.339 270.141 225.839 270.649 226.433 271.907C227.042 273.133 226.542 274.633 225.3 275.227C196.722 289.071 169.683 320.696 169.979 341.274C169.995 346.188 171.401 350.36 174.526 353.891C177.534 357.274 181.886 358.868 187.644 358.891C208.347 359.086 243.347 336.352 262.479 313.165C263.362 312.102 264.933 311.969 265.979 312.844C267.042 313.719 267.19 315.29 266.308 316.352C246.151 340.375 211.386 363.68 187.644 363.868H187.534C180.933 363.868 174.909 361.883 170.784 357.211Z" fill="#373634"/>
<path d="M135.151 279.993C157.722 301.625 178.104 342.969 162.354 355.071C144.987 368.438 117.3 337.938 105.214 308.211L135.151 279.993Z" fill="url(#paint2_radial_1_3)"/>
<path d="M152.933 360.797C133.823 360.336 113.386 334.336 102.901 309.149C102.37 307.875 102.979 306.407 104.261 305.899C105.534 305.368 106.979 305.985 107.511 307.258C117.144 331.602 138.542 356.274 152.933 355.805C155.761 355.782 158.339 354.977 160.815 353.11C163.886 350.704 165.37 346.875 165.386 341.524C165.534 325.118 150.026 297.571 133.401 281.797H133.425C132.401 280.844 132.378 279.266 133.339 278.266C134.292 277.274 135.862 277.227 136.862 278.188C154.253 294.993 170.229 322.461 170.386 341.524C170.425 347.75 168.526 353.446 163.854 357.055C160.589 359.586 156.823 360.797 153.034 360.797H152.933Z" fill="#373634"/>
<path d="M204.011 241.063C204.011 254.79 184.831 265.922 161.151 265.922C137.479 265.922 118.276 254.79 118.276 241.063C118.276 227.329 137.479 216.196 161.151 216.196C184.831 216.196 204.011 227.329 204.011 241.063Z" fill="#2E8EBA"/>
<path d="M132.073 225.633C124.729 229.891 120.737 235.438 120.776 241.055C120.737 246.665 124.729 252.211 132.073 256.469C139.362 260.696 149.698 263.422 161.136 263.422C172.604 263.422 182.917 260.696 190.198 256.469C197.511 252.211 201.519 246.665 201.495 241.055C201.519 235.438 197.511 229.891 190.198 225.633C182.917 221.399 172.604 218.68 161.136 218.68C149.698 218.68 139.362 221.399 132.073 225.633ZM115.769 241.055C116.206 224.743 136.901 213.79 161.136 213.688C185.394 213.79 206.05 224.743 206.511 241.055C206.05 257.36 185.394 268.313 161.136 268.422C136.901 268.313 116.206 257.36 115.769 241.055Z" fill="#373634"/>
<path d="M125.339 91.868C125.339 91.868 44.386 -2.539 16.91 8.11C-10.567 18.758 35.745 183.719 35.745 183.719L125.339 91.868Z" fill="url(#paint3_radial_1_3)"/>
<path d="M21.73 9.758C20.222 9.758 18.917 9.993 17.8 10.438C13.62 11.586 10.495 21.18 10.66 35.821C10.62 78.86 31.761 159.618 36.995 178.852L121.917 91.766C117.167 86.321 101.644 68.86 83.44 51.375C61.87 30.415 35.73 9.75 22.035 9.75C21.941 9.75 21.831 9.75 21.73 9.758ZM35.113 186.141C34.261 185.922 33.558 185.243 33.324 184.399C33.324 184.266 5.70599 86.313 5.66699 35.821C5.83899 20.907 7.60499 9.5 15.972 5.782C17.777 5.063 19.73 4.758 21.73 4.758C55.628 5.547 126.698 90.165 127.222 90.243L125.339 91.86L127.222 90.243C128.073 91.219 128.011 92.696 127.112 93.602L37.535 185.461C37.042 185.946 36.394 186.211 35.714 186.211C35.527 186.211 35.316 186.188 35.113 186.141Z" fill="#373634"/>
<path d="M127.331 109.946C127.331 109.946 63.089 35.016 41.292 43.469C19.488 51.922 56.253 182.821 56.253 182.821L127.331 109.946Z" fill="#F2B9B6"/>
<path d="M200.901 87.915C200.901 87.915 281.839 -6.484 309.3 4.165C336.792 14.805 290.464 179.758 290.464 179.758L200.901 87.915Z" fill="url(#paint4_radial_1_3)"/>
<path d="M289.198 174.875C294.386 155.594 315.534 74.907 315.495 31.875C315.659 17.227 312.573 7.625 308.386 6.5C307.229 6.055 305.948 5.821 304.464 5.821C290.854 5.5 264.479 26.321 242.761 47.422C224.565 64.891 209.065 82.352 204.3 87.805L289.198 174.875ZM288.667 181.493L199.089 89.641L200.901 87.915L202.8 89.54L200.901 87.915L199.089 89.641C198.198 88.727 198.159 87.258 198.987 86.274C199.519 86.196 270.573 1.602 304.464 0.813C306.44 0.813 308.386 1.133 310.19 1.836C318.597 5.563 320.323 16.977 320.495 31.875C320.456 82.336 292.886 180.305 292.854 180.43C292.62 181.282 291.948 181.961 291.073 182.172C290.862 182.235 290.651 182.258 290.448 182.258C289.776 182.258 289.136 181.977 288.667 181.493Z" fill="#373634"/>
<path d="M200.198 109.946C200.198 109.946 264.44 35.016 286.253 43.469C308.05 51.922 271.292 182.821 271.292 182.821L200.198 109.946Z" fill="#F2B9B6"/>
<path d="M308.597 157.391C308.597 216.43 243.753 253.477 163.776 253.477C83.784 253.477 18.964 216.43 18.964 157.391C18.964 98.352 83.784 39.696 163.776 39.696C243.753 39.696 308.597 98.352 308.597 157.391Z" fill="url(#paint5_radial_1_3)"/>
<path d="M223.229 244.844C228.081 235.555 230.87 225.016 230.87 213.805C230.87 176.93 201.183 147.04 164.573 147.04C127.964 147.04 98.292 176.93 98.292 213.805C98.292 225.266 101.167 236.055 106.206 245.477C123.862 250.688 143.308 253.477 163.776 253.477C184.987 253.477 205.073 250.438 223.229 244.844Z" fill="#FFFFFE"/>
<path d="M93.854 200.352C93.854 211.993 84.409 221.43 72.776 221.43C61.136 221.43 51.706 211.993 51.706 200.352C51.706 188.711 61.136 179.274 72.776 179.274C84.409 179.274 93.854 188.711 93.854 200.352Z" fill="#F2B9B6"/>
<path d="M275.636 200.352C275.636 211.993 266.198 221.43 254.565 221.43C242.933 221.43 233.479 211.993 233.479 200.352C233.479 188.711 242.933 179.274 254.565 179.274C266.198 179.274 275.636 188.711 275.636 200.352Z" fill="#F2B9B6"/>
<path d="M110.55 177.18C108.089 190.047 95.659 198.477 82.815 196.024C69.948 193.555 61.511 181.133 63.979 168.266C66.44 155.415 78.854 146.977 91.729 149.438C104.589 151.899 113.011 164.321 110.55 177.18Z" fill="#EDDD49"/>
<path d="M66.417 168.774C66.136 170.071 66.011 171.415 66.011 172.75C66.011 182.711 73.112 191.61 83.276 193.563C84.597 193.821 85.948 193.946 87.269 193.946C97.222 193.93 106.104 186.899 108.081 176.743H108.073C108.323 175.344 108.448 174 108.448 172.688C108.448 162.727 101.401 153.821 91.245 151.891C89.886 151.618 88.55 151.493 87.229 151.493C77.253 151.493 68.347 158.579 66.417 168.774ZM82.331 198.477C69.769 196.055 61.019 185.086 61.019 172.75C61.019 171.118 61.167 169.438 61.511 167.797C63.909 155.25 74.886 146.493 87.229 146.493C88.862 146.493 90.526 146.649 92.198 146.985C104.729 149.383 113.464 160.352 113.44 172.688C113.44 174.321 113.292 175.977 113.011 177.618L110.55 177.188L112.995 177.657C110.589 190.204 99.597 198.938 87.269 198.938C85.636 198.938 83.979 198.766 82.331 198.477Z" fill="#373634"/>
<path d="M218.089 177.18C220.558 190.047 232.979 198.477 245.847 196.024C258.714 193.555 267.144 181.133 264.675 168.266C262.214 155.415 249.8 146.977 236.933 149.438C224.058 151.899 215.636 164.321 218.089 177.18Z" fill="#EDDD49"/>
<path d="M241.354 193.954C242.667 193.93 244.011 193.821 245.347 193.563C255.526 191.61 262.565 182.719 262.581 172.758C262.581 171.438 262.433 170.071 262.198 168.735C260.269 158.563 251.354 151.5 241.394 151.5C240.058 151.5 238.714 151.61 237.401 151.883C227.198 153.836 220.136 162.735 220.136 172.711C220.136 174.032 220.269 175.352 220.526 176.672L218.089 177.18L220.542 176.711C222.479 186.86 231.394 193.93 241.354 193.954ZM241.354 198.93C229.019 198.954 218.05 190.219 215.628 177.696C215.292 175.993 215.136 174.336 215.136 172.711C215.136 160.375 223.886 149.391 236.409 146.993C238.073 146.649 239.753 146.5 241.394 146.5C253.737 146.5 264.714 155.243 267.112 167.844C267.417 169.461 267.565 171.118 267.565 172.758C267.581 185.071 258.862 196.055 246.284 198.485C244.745 198.758 243.183 198.93 241.628 198.93H241.354Z" fill="#373634"/>
<path d="M127.276 201.586C126.479 199.696 127.37 197.485 129.284 196.696C131.175 195.883 133.362 196.782 134.198 198.672C134.214 198.649 135.151 200.688 136.948 202.711C138.808 204.813 141.589 206.922 145.261 206.766C146.37 206.766 147.644 206.602 149.104 206.172C158.034 203.477 160.308 199.758 160.948 198.586C161.12 198.313 161.097 198.313 161.097 198.313C161.589 196.29 163.581 195.04 165.62 195.524C167.62 196.016 168.87 198.032 168.386 200.055C168.261 201.094 165.323 209.297 151.214 213.352C149.136 213.977 147.136 214.274 145.261 214.274C132.151 213.954 127.456 201.821 127.276 201.586Z" fill="#373634"/>
<path d="M179.011 213.446C165.144 210.766 160.659 200.219 161.003 192.547C161.003 185.868 163.269 180.641 163.37 180.383C164.183 178.469 166.401 177.571 168.284 178.383C170.183 179.188 171.081 181.399 170.269 183.297C170.354 183.344 168.464 187.657 168.479 192.547C168.808 198.329 169.995 203.579 180.534 206.086C181.854 206.368 183.042 206.493 184.104 206.493C192.526 206.665 195.737 198.758 195.737 198.758H195.761C196.511 196.821 198.698 195.883 200.612 196.649C202.526 197.415 203.464 199.602 202.714 201.524C202.581 201.836 197.87 213.813 184.104 213.977C182.479 213.977 180.792 213.813 179.011 213.446Z" fill="#373634"/>
<path d="M163.104 187.196C170.065 188.219 180.526 178.985 178.206 172.821C176.698 168.813 151.776 166.954 149.151 171.797C146.55 176.633 155.003 186 163.104 187.196Z" fill="#EC978C"/>
<path d="M161.472 173.133C161.472 174.282 159.3 175.211 156.636 175.211C153.987 175.211 151.808 174.282 151.808 173.133C151.808 171.977 153.987 171.047 156.636 171.047C159.3 171.047 161.472 171.977 161.472 173.133Z" fill="#F9DAD6"/>
<path d="M0.549986 194.344C0.237986 192.313 1.61999 190.375 3.65999 190.063L44.511 183.485C46.55 183.141 48.479 184.54 48.823 186.579C49.136 188.618 47.738 190.547 45.699 190.891L4.86999 197.469C4.67499 197.493 4.47999 197.508 4.28499 197.508C2.45599 197.508 0.862986 196.188 0.549986 194.344Z" fill="#373634"/>
<path d="M14.136 216.079C13.417 214.125 14.433 211.977 16.363 211.274L50.894 198.711C52.847 198.008 54.995 199.008 55.698 200.961C56.394 202.891 55.394 205.063 53.464 205.758L18.933 218.321C18.511 218.477 18.081 218.547 17.652 218.547C16.12 218.547 14.683 217.602 14.136 216.079Z" fill="#373634"/>
<path d="M317.175 194.836L276.354 188.235C274.308 187.915 272.925 185.977 273.245 183.93C273.573 181.891 275.503 180.508 277.542 180.829L318.386 187.422C320.425 187.743 321.808 189.68 321.495 191.727C321.183 193.571 319.597 194.883 317.769 194.883C317.573 194.883 317.37 194.868 317.175 194.836Z" fill="#373634"/>
<path d="M303.12 215.672L268.604 203.118C266.667 202.415 265.651 200.258 266.37 198.305C267.073 196.368 269.222 195.368 271.159 196.063L305.667 208.633C307.612 209.352 308.628 211.5 307.901 213.438C307.354 214.969 305.933 215.907 304.409 215.907C303.979 215.907 303.542 215.836 303.12 215.672Z" fill="#373634"/>
<path d="M21.464 157.383C21.589 214.227 84.308 250.93 163.761 250.977C243.206 250.93 305.948 214.227 306.081 157.383C305.948 100.227 242.573 42.297 163.761 42.188C84.948 42.297 21.589 100.227 21.464 157.383ZM16.441 157.383C16.636 96.5 82.604 37.25 163.761 37.188C244.917 37.25 310.917 96.5 311.104 157.383C310.87 218.618 244.276 255.868 163.761 255.977C83.229 255.868 16.652 218.618 16.441 157.383Z" fill="#373634"/>
<path d="M173.151 273.915C173.151 280.54 167.776 285.922 161.151 285.922C154.526 285.922 149.144 280.54 149.144 273.915C149.144 267.29 154.526 261.915 161.151 261.915C167.776 261.915 173.151 267.29 173.151 273.915Z" fill="url(#paint6_radial_1_3)"/>
<path d="M151.628 273.915C151.644 279.165 155.894 283.415 161.151 283.415C166.37 283.415 170.628 279.165 170.651 273.915C170.628 268.665 166.37 264.415 161.151 264.415C155.894 264.415 151.644 268.665 151.628 273.915ZM146.628 273.915C146.628 265.899 153.128 259.415 161.151 259.415C169.167 259.415 175.636 265.899 175.636 273.915C175.636 281.922 169.167 288.407 161.151 288.407C153.128 288.407 146.628 281.922 146.628 273.915Z" fill="#373634"/>
<path d="M181.722 40.743C179.136 40.618 166.394 39.696 163.776 39.696C159.229 39.696 154.761 39.938 150.315 40.305C150.433 40.766 165.706 109.321 166.862 136.758C168.003 104.75 181.683 40.899 181.722 40.743Z" fill="#373634"/>
<path d="M232.019 53.883C227.761 52.329 215.894 48.235 211.448 47.024C208.87 56.454 205.448 76.165 198.581 110.461C216.573 68.461 225.737 58.461 232.019 53.883Z" fill="#373634"/>
<path d="M92.558 56.743C111.987 72.75 124.589 89.883 137.144 108.18C130.292 87.61 113.979 54.336 113.511 47.813C109.729 49.032 91.175 55.61 92.558 56.743Z" fill="#373634"/>
<path d="M19.417 150.54C19.214 152.829 18.964 155.102 18.964 157.391C18.964 160.868 19.214 164.243 19.652 167.571C31.808 162 44.675 157.485 57.925 158.5C48.573 156.704 32.605 150.797 19.417 150.54Z" fill="#373634"/>
<path d="M307.464 169.93C308.151 165.868 309.745 152.493 309.745 148.188C309.745 146.508 279.073 151.336 269.573 156.18C286.089 156.938 296.886 162.743 307.464 169.93Z" fill="#373634"/>
<defs>
<radialGradient id="paint0_radial_1_3" cx="0" cy="0" r="1" gradientUnits="userSpaceOnUse" gradientTransform="translate(371.387 169.907) scale(297.825)">
<stop stop-color="#C2C4C1"/>
<stop offset="0.006" stop-color="#C2C4C1"/>
<stop offset="0.298" stop-color="#BABCBA"/>
<stop offset="0.657" stop-color="#A5A7A6"/>
<stop offset="1" stop-color="#989B9A"/>
</radialGradient>
<radialGradient id="paint1_radial_1_3" cx="0" cy="0" r="1" gradientUnits="userSpaceOnUse" gradientTransform="translate(370.406 169.902) scale(297.67)">
<stop stop-color="#C2C4C1"/>
<stop offset="0.006" stop-color="#C2C4C1"/>
<stop offset="0.298" stop-color="#BABCBA"/>
<stop offset="0.657" stop-color="#A5A7A6"/>
<stop offset="1" stop-color="#989B9A"/>
</radialGradient>
<radialGradient id="paint2_radial_1_3" cx="0" cy="0" r="1" gradientUnits="userSpaceOnUse" gradientTransform="translate(354.507 172.534) scale(284.552)">
<stop stop-color="#C2C4C1"/>
<stop offset="0.006" stop-color="#C2C4C1"/>
<stop offset="0.298" stop-color="#BABCBA"/>
<stop offset="0.657" stop-color="#A5A7A6"/>
<stop offset="1" stop-color="#989B9A"/>
</radialGradient>
<radialGradient id="paint3_radial_1_3" cx="0" cy="0" r="1" gradientUnits="userSpaceOnUse" gradientTransform="translate(21.915 29.309) scale(82.308)">
<stop stop-color="#C2C4C1"/>
<stop offset="0.006" stop-color="#C2C4C1"/>
<stop offset="0.298" stop-color="#BABCBA"/>
<stop offset="0.657" stop-color="#A5A7A6"/>
<stop offset="1" stop-color="#989B9A"/>
</radialGradient>
<radialGradient id="paint4_radial_1_3" cx="0" cy="0" r="1" gradientUnits="userSpaceOnUse" gradientTransform="translate(281.387 36.171) scale(59.882)">
<stop stop-color="#C2C4C1"/>
<stop offset="0.006" stop-color="#C2C4C1"/>
<stop offset="0.298" stop-color="#BABCBA"/>
<stop offset="0.657" stop-color="#A5A7A6"/>
<stop offset="1" stop-color="#989B9A"/>
</radialGradient>
<radialGradient id="paint5_radial_1_3" cx="0" cy="0" r="1" gradientUnits="userSpaceOnUse" gradientTransform="translate(118.892 117.365) scale(164.606)">
<stop stop-color="#C2C4C1"/>
<stop offset="0.006" stop-color="#C2C4C1"/>
<stop offset="0.298" stop-color="#BABCBA"/>
<stop offset="0.657" stop-color="#A5A7A6"/>
<stop offset="1" stop-color="#989B9A"/>
</radialGradient>
<radialGradient id="paint6_radial_1_3" cx="0" cy="0" r="1" gradientUnits="userSpaceOnUse" gradientTransform="translate(150.556 260.502) scale(38.945)">
<stop stop-color="#E5DF58"/>
<stop offset="0.503" stop-color="#E5DF58"/>
<stop offset="1" stop-color="#DC8246"/>
</radialGradient>
</defs>
</svg>
